<svg xmlns="http://www.w3.org/2000/svg" width="214" height="657" viewBox="0 0 214 657">
    <g fill="none" fill-rule="evenodd">
        <g fill-rule="nonzero">
            <g>
                <path fill="#CCE5FC" d="M0 0H100.982V110.873H0z" transform="translate(0 -423) translate(0 423)"/>
                <path fill="#F0F7FF" d="M7.603 0H111.919V110.873H7.603z" transform="translate(0 -423) translate(0 423)"/>
                <path fill="#FFF" d="M13.061 12.035L106.461 12.035 106.461 98.874 13.061 98.874z" transform="translate(0 -423) translate(0 423) rotate(90 59.76 55.454)"/>
                <path fill="#F0F7FF" d="M35.713 33.069L83.827 33.069 83.827 77.804 35.713 77.804z" transform="translate(0 -423) translate(0 423) rotate(90 59.77 55.436)"/>
                <path fill="#CCE5FC" d="M130.98 66.109H205.89299999999997V148.358H130.98z" transform="translate(0 -423) translate(0 423)"/>
                <path fill="#F0F7FF" d="M136.619 66.109H214V148.358H136.619z" transform="translate(0 -423) translate(0 423)"/>
                <path fill="#FFF" d="M140.67 75.03L209.949 75.03 209.949 139.439 140.67 139.439z" transform="translate(0 -423) translate(0 423) rotate(90 175.31 107.234)"/>
                <path fill="#F0F7FF" d="M175.319 89.725L157.698 120.24 192.939 120.24z" transform="translate(0 -423) translate(0 423)"/>
                <g>
                    <path fill="#051F33" fill-opacity=".071" d="M98.293 199.161c-8.496 6.923-20.236 19.633-30.97 37.483-7.167 11.9-11.48 24.318-13.377 40.838 0-18.644.113-38.666.178-57.57 2.157-4.863 7.086-16.082 10.62-24.934 11.79-29.57 16.216-36.833 26.804-62.319 14.156-34.045 28.652-74.349 24.5-71.139-8.463 6.582-40.893 67.297-44.396 75.987-9.546 23.19-15.448 47.717-17.495 72.71 0-17.833.13-34.045.194-46.641.227-41.017.924-54.262 1.265-58.364 1.313-2.075 2.854-4.49 3.762-5.804C66.998 88.4 69.934 79.013 77.1 62.59 87.284 39.31 96.04-2.015 93.478.076 82.808 8.75 74.409 27.41 63.35 51.193c-11.058 23.783-7.896 37.434-10.085 57.748-.454 3.988-.81 19.017-1.07 39.865-2.854-22.21-8.238-36.834-18.047-50.128-12.064-16.358-23.739-27.414-32.3-33.17-8.562-5.755 14.787 34.403 25.943 51.88 9.94 15.612 19.101 29.392 24.323 42.961-.276 28.242-.406 64.006-.406 97.273-2.562-15.158-6.745-31.468-12.323-44.097-6.713-15.174-17.026-38.455-25.247-46.367-1.962-1.896 8.594 43.384 15.372 55.43 6.778 12.045 11.756 23.394 16.02 30.219.99 1.621 4.297 7.733 6.178 11.349 0 40.643.227 76.504.584 88.712h1.751c-.113-3.161-.146-23.832-.097-51.198 4.232-14.85 13.896-31.808 21.874-47.274 8.69-16.877 30.97-62.174 22.473-55.235z" transform="translate(0 -423) translate(0 423) translate(47.909 279.214)"/>
                    <path fill="#CCE5FC" d="M78.56 377.786L27.743 377.786 23.9 327.983 82.403 327.983z" transform="translate(0 -423) translate(0 423) translate(47.909 279.214)"/>
                    <path fill="#B7D6FA" d="M86.181 333.787L20.105 333.787 18.225 316.975 88.078 316.975z" transform="translate(0 -423) translate(0 423) translate(47.909 279.214)"/>
                </g>
            </g>
        </g>
    </g>
</svg>
