<svg xmlns="http://www.w3.org/2000/svg" width="365" height="763" viewBox="0 0 365 763">
    <g fill="none" fill-rule="evenodd">
        <g fill-rule="nonzero">
            <g>
                <g transform="translate(-1615 -182) matrix(-1 0 0 1 1980 189) matrix(-1 0 0 1 357 0)">
                    <path fill="#FFF" stroke="#F0F7FF" stroke-width="14" d="M209.714 319.839L10.88 319.839 0 0 198.834 0z"/>
                    <ellipse cx="102.535" cy="91.72" fill="#FFF" rx="54.993" ry="56.898" transform="rotate(-45.49 102.535 91.72)"/>
                    <path fill="#F0F7FF" stroke="#F0F7FF" stroke-width="4.2" d="M100.377 43.403h.595c13.41.095 25.6 5.452 34.57 14.137 8.968 8.684 14.718 20.695 15.248 34.101.303 7.983-1.438 15.911-5.058 23.035-3.983 7.823-10.004 14.185-17.224 18.575-7.22 4.39-15.638 6.81-24.412 6.745-17.872-.103-34.337-9.716-43.216-25.23-4.062-6.997-6.331-14.889-6.605-22.974-.541-12.695 4.145-25.058 12.967-34.204 8.827-9.15 21.02-14.277 33.73-14.185z"/>
                    <path fill="#FFF" d="M143.86 113.723c-7.604 14.937-22.993 24.295-39.752 24.173-17.123-.099-32.899-9.309-41.405-24.173 11.833-8.071 25.836-12.36 40.159-12.297 14.572.016 28.822 4.29 40.999 12.297z"/>
                    <ellipse cx="101.993" cy="75.922" fill="#FFF" rx="20.222" ry="20.922" transform="rotate(-45.49 101.993 75.922)"/>
                    <path fill="#F0F7FF" d="M169.779 204.015L42.931 204.015 42.077 178.806 168.911 178.806zM171.306 249.07L44.472 249.07 43.604 223.861 170.451 223.861z"/>
                    <path fill="#FFF" d="M110.493 191.41c.065 1.212-.37 2.398-1.204 3.28-.834.881-1.993 1.382-3.207 1.384-2.564-.013-4.663-2.045-4.76-4.608-.054-1.212.392-2.393 1.234-3.267.842-.874 2.005-1.363 3.218-1.354 2.527.048 4.587 2.04 4.72 4.565zM90.694 191.41c.065 1.22-.376 2.412-1.219 3.295-.843.883-2.013 1.379-3.234 1.37-2.567-.014-4.67-2.043-4.775-4.609-.05-1.21.398-2.39 1.239-3.262.84-.873 2.002-1.364 3.214-1.36 2.548.02 4.641 2.02 4.775 4.566zM70.838 191.41c.07 1.22-.37 2.415-1.213 3.3-.844.884-2.017 1.378-3.24 1.364-2.561-.02-4.656-2.048-4.76-4.608-.05-1.21.397-2.39 1.238-3.262.841-.873 2.003-1.364 3.214-1.36 2.546.02 4.635 2.023 4.761 4.566zM130.376 191.41c.07 1.226-.372 2.425-1.223 3.31-.85.885-2.03 1.376-3.257 1.354-2.562-.02-4.657-2.048-4.761-4.608-.05-1.21.398-2.39 1.239-3.262.84-.873 2.002-1.364 3.214-1.36 2.557.005 4.662 2.012 4.788 4.566zM150.232 191.41c.066 1.22-.375 2.412-1.218 3.295-.844.883-2.014 1.379-3.235 1.37-2.567-.014-4.67-2.043-4.775-4.609-.05-1.21.398-2.39 1.24-3.262.84-.873 2.001-1.364 3.213-1.36 2.549.02 4.642 2.02 4.775 4.566z"/>
                </g>
                <g transform="translate(-1615 -182) matrix(-1 0 0 1 1980 189) matrix(-1 0 0 1 225.503 97.429)">
                    <path fill="#E58A7B" d="M170.91 137.642c2.521 5.243 5.042 10.99 7.108 16.613 2.067 5.621 4.461 11.344 6.377 17.117 3.969 11.326 6.987 22.962 9.023 34.79l.655 3.705c.054.627-.006 1.26-.176 1.865-.574 2.098-1.512 4.077-2.772 5.849-3.224 4.626-6.98 8.856-11.191 12.605-4.42 4.134-9.065 8.022-13.913 11.647-4.84 3.73-9.93 7.36-14.92 10.764l4.687 8.849c11.966-5.205 23.326-11.706 33.875-19.387 5.631-4.107 10.713-8.92 15.122-14.319 2.669-3.24 4.742-6.927 6.125-10.89.797-2.39 1.206-4.892 1.21-7.412v-3.176l-.252-2.521c-1.515-13.108-4.343-26.03-8.444-38.57-1.966-6.227-4.058-12.378-6.452-18.429-2.394-6.05-4.864-11.924-7.94-18.125l-18.121 9.025z"/>
                    <path fill="#E58A7B" d="M154.528 251.06l-17.82-9 4.613 19.587s12.224 3.429 17.92-2.52l-4.713-8.068z"/>
                    <path fill="#E58A7B" d="M120.401 245.236L125.14 261.42 141.321 261.597 136.708 242.009z"/>
                    <path fill="#DF5753" d="M95.247 43.257c-.969 3.456-2.312 6.795-4.007 9.958.998 1.132 2.537 1.626 4.007 1.286V43.257z"/>
                    <ellipse cx="95.777" cy="40.509" fill="#263238" rx="1.89" ry="2.899"/>
                    <path fill="#263238" d="M96.23 37.711l-3.83-1.11s1.965 3 3.83 1.11z"/>
                    <path fill="#E58A7B" d="M144.471 61.736c-2.293 11.747-4.587 33.251 3.63 41.066 0 0-3.201 11.924-25.003 11.924-23.994 0-11.468-11.924-11.468-11.924 13.081-3.126 12.753-12.832 10.46-21.932l22.381-19.134z"/>
                    <path fill="#E58A7B" d="M150.848 35.039c-1.21 19.588-1.285 27.907-11.19 37.965-14.871 15.126-38.664 9.353-43.352-10.083-4.21-17.647-1.538-46.688 17.643-54.503 8.564-3.515 18.335-2.358 25.843 3.058 7.507 5.417 11.688 14.326 11.056 23.563z"/>
                    <path fill="#263238" d="M148.907 12.854c9.83 3.605 22.936.933 17.795 31.26-5.394 32.092 2.923 42.655 2.923 42.655s-37.277 7.966-75.336-.454c0 0 11.62-20.344 8.368-35.167-4.158-18.907-.857-25.89-.857-25.89s33.295-17.42 47.107-12.404z"/>
                    <path fill="#E58A7B" d="M107.32 45.249c-.01 3.724-1.076 7.37-3.075 10.512-2.671 4.084-5.822 2.521-6.603-1.815-.706-3.832-.177-10.563 3.226-13.16 3.402-2.596 6.402.026 6.452 4.463z"/>
                    <path fill="#263238" d="M157.452 16.308c2.822-7.94-10.637-20.167-39.118-15.126-28.48 5.042-29.716 28.815-29.716 28.815l5.747-6.832-.252 7.134 29.388 5.698 33.95-19.689z"/>
                    <path fill="#BFDCF6" d="M155.032 104.138c.364-2.397-1.264-4.642-3.655-5.042-8.872-1.462-29.01-4.437-39.167-3.025-7.562 1.034-9.527 5.445-9.855 9.05-.095 1.275.36 2.53 1.252 3.446.892.916 2.134 1.405 3.41 1.344l43.831-1.991c2.123-.088 3.882-1.678 4.184-3.782z"/>
                    <path fill="#E58A7B" d="M129.702 544.574L113.47 555.842 86.274 518.986 102.506 507.692zM167.634 543.817L150.445 553.624 126.375 514.625 143.539 504.818z"/>
                    <path fill="#CF6F64" d="M86.274 518.986L100.288 537.994 116.545 526.7 102.531 507.692zM143.564 504.843L126.375 514.625 138.775 534.717 155.99 524.935z"/>
                    <path fill="#407BFF" d="M115.94 227.236s-63.465 80.015-51.543 156.526c9.603 61.789 65.305 145.46 65.305 145.46l26.187-13.009c-18.461-37.002-34.213-75.295-47.132-114.577-8.085-24.696-4.367-51.738 10.082-73.335 32.387-46.965 83.779-19.033 49.123-101.065H115.94z"/>
                    <path fill="#333D47" d="M115.94 227.236s-63.465 80.015-51.543 156.526c9.603 61.789 65.305 145.46 65.305 145.46l26.187-13.009c-18.461-37.002-34.213-75.295-47.132-114.577-8.085-24.696-4.367-51.738 10.082-73.335 32.387-46.965 83.779-19.033 49.123-101.065H115.94z"/>
                    <path fill="#242E38" d="M84.863 278.664l9.225-9.177c0 .731-17.87 111.048-22.886 142.056-2.958-9.059-5.224-18.329-6.78-27.73-5.822-37.512 6.427-75.83 20.441-105.15z"/>
                    <path fill="#407BFF" d="M87.66 227.236S11.242 327.772 9.1 388.073c-1.815 50.419 83.174 148.08 83.174 148.08l24.7-15.957S67.245 450.82 54.72 394.148c4.763-56.141 107.219-166.887 107.219-166.887l-74.277-.025z"/>
                    <path fill="#333D47" d="M87.66 227.236S11.242 327.772 9.1 388.073c-1.815 50.419 83.174 148.08 83.174 148.08l24.7-15.957S67.245 450.82 54.72 394.148c4.763-56.141 107.219-166.887 107.219-166.887l-74.277-.025z"/>
                    <path fill="#CCE5FC" d="M182.202 107.315c8.192 1.915 16.005 31.637 16.005 31.637l-31.858 21.303s-10.637-23.47-6.931-33.756c3.805-10.714 12.45-21.63 22.784-19.184z"/>
                    <path fill="#BDD8F1" d="M175.952 126.423l2.218 25.89-11.821 7.942c-3.276-7.374-5.702-15.095-7.234-23.017l16.837-10.815z"/>
                    <path fill="#D9EDFF" d="M78.133 107.87s-9.426 3.327 9.452 119.366h80.377c-1.336-32.772-1.386-52.94 14.24-119.921-11.242-2.334-22.64-3.842-34.101-4.513-12.142-.858-24.33-.858-36.47 0-15.653 1.437-33.498 5.067-33.498 5.067z"/>
                    <path fill="#E58A7B" d="M70.043 126.297c-1.815 5.042-3.73 10.487-5.747 15.706-2.016 5.218-3.806 10.588-5.973 15.857l-6.175 15.831-1.563 3.958-.781 1.992-.403.983v.151c.462-.654 1.065-1.197 1.764-1.588.994-.59 2.121-.92 3.276-.958.967-.045 1.932.127 2.823.504 1.134.555 1.134.782 1.11.756-.197-.182-.382-.375-.555-.58-1.381-1.841-2.588-3.808-3.604-5.873-1.185-2.32-2.32-4.79-3.428-7.286-2.243-5.042-4.26-10.285-6.327-15.529-2.066-5.243-3.982-10.613-5.872-15.957l-5.822-16.11-9.704 2.522c1.916 11.495 4.41 22.688 7.36 34.083 1.462 5.672 3.125 11.294 5.04 16.966.958 2.823 2.017 5.672 3.252 8.546 1.279 3.198 2.883 6.256 4.789 9.126.653.967 1.386 1.878 2.192 2.722 1.336 1.38 2.94 2.469 4.714 3.202 1.546.648 3.213.958 4.89.908 1.838-.096 3.623-.65 5.191-1.614 1.91-1.172 3.49-2.812 4.588-4.764.378-.63.705-1.286.932-1.765l.48-.983.957-1.941 1.915-3.933c2.52-5.244 4.915-10.513 7.234-15.857 2.319-5.344 4.512-10.714 6.68-16.134 2.167-5.42 4.133-10.815 5.947-16.664l-19.18-6.277z"/>
                    <path fill="#CCE5FC" d="M78.133 107.87c-9.577 2.318-20.415 30.83-20.415 30.83l28.683 24.454s18.575-31.109 14.82-41.37c-3.907-10.814-10.485-16.915-23.088-13.915z"/>
                    <path fill="#E58A7B" d="M28.355 109.28l-10.082-8.394-7.007 10.865 5.167 9.126s8.217 7.563 15.5 3.68c2.34-5.32.882-11.548-3.578-15.276z"/>
                    <path fill="#E58A7B" d="M0 100.861L0.756 103.609 16.71 106.306 18.273 100.836z"/>
                    <path fill="#242D36" d="M90.282 537.49L119.065 518.86 113.898 509.911 81.561 529.801z"/>
                    <path fill="#263238" d="M137.616 551.96c-.826-.433-1.37-1.263-1.437-2.193-.098-.567.113-1.143.555-1.513 1.915-1.613 8.746.48 9.527.706.172.068.296.221.327.404.032.184-.06.368-.226.453-2.16 1.363-4.597 2.224-7.133 2.521-.56 0-1.112-.13-1.613-.378zm-.278-2.975c-.194.158-.282.412-.226.656.029.618.37 1.178.907 1.487 1.235.605 3.73 0 6.88-1.588-2.772-.756-6.552-1.412-7.56-.555z"/>
                    <path fill="#263238" d="M146.009 549.868c-2.117-.504-6.73-3.63-6.906-5.9-.057-.764.425-1.466 1.16-1.688.664-.303 1.427-.303 2.091 0 2.52 1.26 4.159 6.73 4.21 6.957.071.143.071.312 0 .454-.09.1-.22.156-.354.151l-.201.026zm-5.369-6.731c-.554.227-.605.53-.605.756 0 1.387 3.15 3.857 5.369 4.79-.63-1.815-1.916-4.765-3.453-5.496-.218-.114-.46-.175-.706-.176-.207.005-.412.048-.605.126zM102.834 563.153c-.857-.091-1.608-.614-1.991-1.386-.267-.451-.267-1.012 0-1.463 1.235-2.52 10.081-3.68 10.989-3.806.196-.023.386.077.479.252.11.168.11.386 0 .555-2.168 2.243-6.125 5.873-8.973 5.873l-.504-.025zm-1.21-2.52c-.114.185-.114.419 0 .604.254.506.748.848 1.31.908 1.588.227 4.386-1.488 7.562-4.588-3.529.655-8.192 1.815-8.872 3.15v-.075z"/>
                    <path fill="#263238" d="M102.153 555.01c-.227-.479-.302-1.235.68-2.092.698-.598 1.607-.889 2.521-.807 3.226.278 6.629 4.387 6.78 4.563.076.142.076.312 0 .454-.057.155-.19.27-.353.303-.558.087-1.123.13-1.688.126-2.798 0-7.158-.858-7.94-2.547zm3.201-1.966c-.691-.08-1.384.13-1.915.58-.656.555-.504.882-.454.983.605 1.235 5.04 2.168 7.914 2.017-1.425-1.747-3.366-3-5.545-3.58z"/>
                    <path fill="#1F272F" d="M145.43 547.22l21.372-6.024c.757-.235 1.569.133 1.89.857l7.21 16.235c.341.836.308 1.779-.092 2.59-.4.81-1.129 1.409-2 1.645-7.562 1.991-11.192 2.52-20.593 5.218-5.797 1.639-14.064 4.639-22.054 6.882-7.99 2.244-10.636-5.52-7.56-7.159 14.013-7.563 15.122-12.605 18.953-18.15.672-1.024 1.693-1.768 2.873-2.093z"/>
                    <path fill="#242D36" d="M111.605 554.355l18.248-12.605c.646-.46 1.535-.362 2.067.227l12.098 12.983c.614.682.9 1.598.784 2.509-.116.91-.623 1.725-1.39 2.23-6.426 4.311-9.753 6.076-17.794 11.647-5.04 3.429-14.77 11.042-21.6 15.781-6.83 4.74-11.87-1.764-9.451-4.36 10.838-11.572 13.232-18.832 15.122-25.412.253-1.2.934-2.266 1.916-3zM126.4 530.885L159.291 514.524 155.889 505.625 120.779 522.843z"/>
                    <path fill="#407BFF" d="M169.172 222.522l2.772 7.21c.277.555-.378 1.11-1.31 1.11H87.256c-.73 0-1.335-.354-1.36-.808l-.732-7.184c0-.504.58-.908 1.362-.908h81.334c.508-.049 1.005.171 1.31.58z"/>
                    <path fill="#263238" d="M169.172 222.522l2.772 7.21c.277.555-.378 1.11-1.31 1.11H87.256c-.73 0-1.335-.354-1.36-.808l-.732-7.184c0-.504.58-.908 1.362-.908h81.334c.508-.049 1.005.171 1.31.58z"/>
                    <path fill="#333D47" d="M156.04 231.623h2.193c.428 0 .756-.227.73-.48l-1.033-9.251c0-.277-.403-.504-.831-.504h-2.168c-.454 0-.781.227-.756.504l1.033 9.353c.026.15.404.378.832.378zM104.623 231.623h2.168c.428 0 .756-.227.73-.48l-1.007-9.251c0-.277-.404-.504-.857-.504h-2.168c-.428 0-.756.227-.73.504l1.007 9.353c.026.15.429.378.857.378z"/>
                    <ellipse fill="#F5F5F5" style="mix-blend-mode:multiply" cx="157.981" cy="653.681" rx="67.522" ry="4.891"/>
                    <path fill="#E0E0E0" d="M116.822 646.773c11.947-3.479 25.205-7.94 33.22-12.605l.705-.353v-54.1h-24.02c-2.672.159-5.212-1.177-6.596-3.47-1.384-2.291-1.384-5.162 0-7.454s3.924-3.628 6.596-3.47h24.02V318.696h14.392v246.625h24.02c2.672-.158 5.212 1.178 6.596 3.47 1.384 2.292 1.384 5.163 0 7.455s-3.924 3.628-6.596 3.47h-24.02v53.999l.68.353c8.141 4.764 21.298 9.226 33.245 12.604 1.668.505 2.718 2.15 2.472 3.876-.245 1.725-1.713 3.013-3.455 3.032h-80.276c-1.637-.138-2.962-1.387-3.197-3.013-.235-1.626.683-3.199 2.214-3.794z"/>
                    <rect width="115.738" height="52.764" x="100.086" y="293.613" fill="#1089F5" rx="13.054" transform="rotate(-180 157.956 319.995)"/>
                    <path fill="#1089F5" d="M203.576 346.376v4.589c0 3.781-4.109 6.882-9.124 6.882h-73.093c-5.04 0-9.15-3.101-9.15-6.882v-4.589h91.367z"/>
                    <path fill="#FFF" d="M203.576 346.376v4.589c0 3.781-4.109 6.882-9.124 6.882h-73.093c-5.04 0-9.15-3.101-9.15-6.882v-4.589h91.367z" opacity=".3"/>
                </g>
            </g>
        </g>
    </g>
</svg>
